<?xml version="1.0" encoding="utf-8"?>
<!-- Generator: Adobe Illustrator 15.0.0, SVG Export Plug-In . SVG Version: 6.00 Build 0)  -->
<!DOCTYPE svg PUBLIC "-//W3C//DTD SVG 1.1//EN" "http://www.w3.org/Graphics/SVG/1.1/DTD/svg11.dtd">
<svg version="1.1" id="Layer_1" xmlns="http://www.w3.org/2000/svg" xmlns:xlink="http://www.w3.org/1999/xlink" x="0px" y="0px"
	 width="170px" height="60px" viewBox="0 0 170 60" enable-background="new 0 0 170 60" xml:space="preserve">
<linearGradient id="SVGID_1_" gradientUnits="userSpaceOnUse" x1="-6.4731" y1="3.8135" x2="190.8625" y2="8.4027">
	<stop  offset="0" style="stop-color:#B42370"/>
	<stop  offset="0.2909" style="stop-color:#5F3079"/>
	<stop  offset="0.8424" style="stop-color:#F69E8F"/>
</linearGradient>
<polygon fill-rule="evenodd" clip-rule="evenodd" fill="url(#SVGID_1_)" points="0.833,8.751 31.903,8.751 35.424,0.021 
	0.833,0.021 "/>
<linearGradient id="SVGID_2_" gradientUnits="userSpaceOnUse" x1="-7.4849" y1="22.771" x2="191.7246" y2="27.4038">
	<stop  offset="0" style="stop-color:#B42370"/>
	<stop  offset="0.2909" style="stop-color:#5F3079"/>
	<stop  offset="0.8424" style="stop-color:#F69E8F"/>
</linearGradient>
<polygon fill-rule="evenodd" clip-rule="evenodd" fill="url(#SVGID_2_)" points="6.316,27.706 24.277,27.706 27.793,18.978 
	6.316,18.978 "/>
<linearGradient id="SVGID_3_" gradientUnits="userSpaceOnUse" x1="-5.2871" y1="29.9497" x2="184.2603" y2="34.3578">
	<stop  offset="0" style="stop-color:#B42370"/>
	<stop  offset="0.2909" style="stop-color:#5F3079"/>
	<stop  offset="0.8424" style="stop-color:#F69E8F"/>
</linearGradient>
<polygon fill-rule="evenodd" clip-rule="evenodd" fill="url(#SVGID_3_)" points="57.084,26.808 41.063,26.808 37.547,35.538 
	57.084,35.538 "/>
<linearGradient id="SVGID_4_" gradientUnits="userSpaceOnUse" x1="-7.7017" y1="23.0581" x2="189.7308" y2="27.6496">
	<stop  offset="0" style="stop-color:#B42370"/>
	<stop  offset="0.2909" style="stop-color:#5F3079"/>
	<stop  offset="0.8424" style="stop-color:#F69E8F"/>
</linearGradient>
<rect y="0.004" fill-rule="evenodd" clip-rule="evenodd" fill="url(#SVGID_4_)" width="8.454" height="46.662"/>
<linearGradient id="SVGID_5_" gradientUnits="userSpaceOnUse" x1="-9.9053" y1="0.9385" x2="185.5899" y2="5.4849">
	<stop  offset="0" style="stop-color:#B42370"/>
	<stop  offset="0.2909" style="stop-color:#5F3079"/>
	<stop  offset="0.8424" style="stop-color:#F69E8F"/>
</linearGradient>
<polygon fill-rule="evenodd" clip-rule="evenodd" fill="url(#SVGID_5_)" points="121.956,0.014 151.17,0.014 154.679,8.741 
	124.768,8.741 "/>
<linearGradient id="SVGID_6_" gradientUnits="userSpaceOnUse" x1="-11.1333" y1="19.6963" x2="184.5285" y2="24.2466">
	<stop  offset="0" style="stop-color:#B42370"/>
	<stop  offset="0.2909" style="stop-color:#5F3079"/>
	<stop  offset="0.8424" style="stop-color:#F69E8F"/>
</linearGradient>
<polygon fill-rule="evenodd" clip-rule="evenodd" fill="url(#SVGID_6_)" points="129.587,18.978 158.805,18.978 162.341,27.705 
	132.398,27.705 "/>
<linearGradient id="SVGID_7_" gradientUnits="userSpaceOnUse" x1="-12.0981" y1="38.46" x2="183.436" y2="43.0073">
	<stop  offset="0" style="stop-color:#B42370"/>
	<stop  offset="0.2909" style="stop-color:#5F3079"/>
	<stop  offset="0.8424" style="stop-color:#F69E8F"/>
</linearGradient>
<polygon fill-rule="evenodd" clip-rule="evenodd" fill="url(#SVGID_7_)" points="137.269,37.941 166.485,37.941 170,46.671 
	140.083,46.671 "/>
<linearGradient id="SVGID_8_" gradientUnits="userSpaceOnUse" x1="-6.8721" y1="22.3765" x2="190.4648" y2="26.9657">
	<stop  offset="0" style="stop-color:#B42370"/>
	<stop  offset="0.2909" style="stop-color:#5F3079"/>
	<stop  offset="0.8424" style="stop-color:#F69E8F"/>
</linearGradient>
<polygon fill-rule="evenodd" clip-rule="evenodd" fill="url(#SVGID_8_)" points="39.551,0.021 48.689,0.021 29.866,46.666 
	20.729,46.666 "/>
<linearGradient id="SVGID_9_" gradientUnits="userSpaceOnUse" x1="-11.4697" y1="20.3545" x2="185.8561" y2="24.9435">
	<stop  offset="0" style="stop-color:#B42370"/>
	<stop  offset="0.2909" style="stop-color:#5F3079"/>
	<stop  offset="0.8424" style="stop-color:#F69E8F"/>
</linearGradient>
<polygon fill-rule="evenodd" clip-rule="evenodd" fill="url(#SVGID_9_)" points="111.579,0.009 102.579,0.009 121.401,46.652 
	130.4,46.652 "/>
<linearGradient id="SVGID_10_" gradientUnits="userSpaceOnUse" x1="-11.6826" y1="20.0015" x2="185.6966" y2="24.5917">
	<stop  offset="0" style="stop-color:#B42370"/>
	<stop  offset="0.2909" style="stop-color:#5F3079"/>
	<stop  offset="0.8424" style="stop-color:#F69E8F"/>
</linearGradient>
<polygon fill-rule="evenodd" clip-rule="evenodd" fill="url(#SVGID_10_)" points="126.749,0 117.75,0 136.578,46.671 
	145.579,46.671 "/>
<linearGradient id="SVGID_11_" gradientUnits="userSpaceOnUse" x1="-11.6025" y1="20.7954" x2="185.7352" y2="25.3847">
	<stop  offset="0" style="stop-color:#B42370"/>
	<stop  offset="0.2909" style="stop-color:#5F3079"/>
	<stop  offset="0.8424" style="stop-color:#F69E8F"/>
</linearGradient>
<polygon fill-rule="evenodd" clip-rule="evenodd" fill="url(#SVGID_11_)" points="102.54,0.014 111.541,0.014 92.72,46.657 
	83.719,46.657 "/>
<linearGradient id="SVGID_12_" gradientUnits="userSpaceOnUse" x1="-15.0308" y1="21.2563" x2="182.2902" y2="25.8452">
	<stop  offset="0" style="stop-color:#B42370"/>
	<stop  offset="0.2909" style="stop-color:#5F3079"/>
	<stop  offset="0.8424" style="stop-color:#F69E8F"/>
</linearGradient>
<polygon fill-rule="evenodd" clip-rule="evenodd" fill="url(#SVGID_12_)" points="79.337,0.014 88.2,0.014 69.379,46.657 
	60.518,46.657 "/>
<linearGradient id="SVGID_13_" gradientUnits="userSpaceOnUse" x1="-37.8115" y1="9.4785" x2="206.6426" y2="15.1635">
	<stop  offset="0" style="stop-color:#B42370"/>
	<stop  offset="0.2909" style="stop-color:#5F3079"/>
	<stop  offset="0.8424" style="stop-color:#F69E8F"/>
</linearGradient>
<polygon fill-rule="evenodd" clip-rule="evenodd" fill="url(#SVGID_13_)" points="88.426,0.014 79.492,0.014 89.571,24.84 
	93.956,13.905 "/>
<g>
	<linearGradient id="SVGID_14_" gradientUnits="userSpaceOnUse" x1="1.7451" y1="21.4116" x2="162.3461" y2="25.1465">
		<stop  offset="0" style="stop-color:#B42370"/>
		<stop  offset="0.2909" style="stop-color:#5F3079"/>
		<stop  offset="0.8424" style="stop-color:#F69E8F"/>
	</linearGradient>
	<polygon fill-rule="evenodd" clip-rule="evenodd" fill="url(#SVGID_14_)" points="62.557,34.052 48.826,0.021 39.822,0.021 
		58.057,45.206 	"/>
</g>
<g>
	<path fill="#5F3079" d="M27.241,56.559c0,1.975-1.529,3.441-3.485,3.441c-1.938,0-3.485-1.414-3.485-3.388
		c0-1.973,1.529-3.423,3.485-3.423C25.72,53.189,27.241,54.603,27.241,56.559z M26.583,56.559c0-1.636-1.236-2.773-2.818-2.773
		c-1.609,0-2.836,1.191-2.836,2.827c0,1.653,1.254,2.791,2.836,2.791C25.365,59.403,26.583,58.204,26.583,56.559z"/>
	<path fill="#5F3079" d="M29.172,53.305h0.889l3.716,5.459v-5.459h0.658v6.579h-0.658l-3.947-5.778v5.778h-0.657V53.305z"/>
	<path fill="#5F3079" d="M36.642,53.305H37.3v5.983h2.72v0.596h-3.378V53.305z"/>
	<path fill="#5F3079" d="M41.657,53.305h0.658v6.579h-0.658V53.305z"/>
	<path fill="#5F3079" d="M44.538,53.305h0.889l3.716,5.459v-5.459h0.658v6.579h-0.658l-3.947-5.778v5.778h-0.658V53.305z"/>
	<path fill="#5F3079" d="M52.008,53.305h3.609v0.597h-2.951v2.374h2.854v0.595h-2.854v2.418h2.951v0.596h-3.609V53.305z"/>
	<path fill="#5F3079" d="M60.625,53.305h3.333v0.597h-2.676v2.382h2.578v0.596h-2.578v3.005h-0.657V53.305z"/>
	<path fill="#5F3079" d="M67.604,53.305h0.729l2.818,6.579H70.44l-0.951-2.204H66.43l-0.951,2.204h-0.711L67.604,53.305z
		 M69.231,57.084l-1.262-3.014l-1.28,3.014H69.231z"/>
	<path fill="#5F3079" d="M72.993,58.044c0.018,0.267,0.133,1.359,1.36,1.359c0.871,0,1.36-0.631,1.36-1.333
		c0-0.8-0.596-1.084-0.88-1.191c-0.845-0.329-2.294-0.391-2.294-1.902c0-0.737,0.507-1.787,1.867-1.787
		c1.218,0,1.787,0.907,1.805,1.778h-0.658c-0.018-0.418-0.231-1.183-1.227-1.183c-0.809,0-1.129,0.614-1.129,1.2
		c0,0.721,0.48,0.925,1.298,1.155c0.702,0.196,1.876,0.517,1.876,1.938c0,0.889-0.64,1.921-2,1.921c-1.146,0-2.036-0.81-2.036-1.956
		H72.993z"/>
	<path fill="#5F3079" d="M78.115,53.305h0.658v2.898h3.44v-2.898h0.658v6.579h-0.658v-3.085h-3.44v3.085h-0.658V53.305z"/>
	<path fill="#5F3079" d="M85.096,53.305h0.658v6.579h-0.658V53.305z"/>
	<path fill="#5F3079" d="M94.662,56.559c0,1.975-1.529,3.441-3.485,3.441c-1.938,0-3.484-1.414-3.484-3.388
		c0-1.973,1.529-3.423,3.484-3.423C93.142,53.189,94.662,54.603,94.662,56.559z M94.004,56.559c0-1.636-1.235-2.773-2.817-2.773
		c-1.609,0-2.836,1.191-2.836,2.827c0,1.653,1.253,2.791,2.836,2.791C92.786,59.403,94.004,58.204,94.004,56.559z"/>
	<path fill="#5F3079" d="M96.594,53.305h0.889l3.716,5.459v-5.459h0.658v6.579h-0.658l-3.947-5.778v5.778h-0.658V53.305z"/>
	<path fill="#5F3079" d="M107.025,53.305h1.013l2.418,5.601l2.418-5.601h1.013v6.579h-0.658v-5.841l-2.497,5.841h-0.551
		l-2.499-5.841v5.841h-0.657V53.305z"/>
	<path fill="#5F3079" d="M118.361,53.305h0.729l2.817,6.579h-0.711l-0.951-2.204h-3.059l-0.951,2.204h-0.711L118.361,53.305z
		 M119.988,57.084l-1.263-3.014l-1.28,3.014H119.988z"/>
	<path fill="#5F3079" d="M123.556,53.305h0.657v5.983h2.721v0.596h-3.378V53.305z"/>
	<path fill="#5F3079" d="M128.553,53.305h0.658v5.983h2.72v0.596h-3.378V53.305z"/>
</g>
</svg>
